<?xml version="1.0" encoding="UTF-8"?>
<svg id="Calque_1" xmlns="http://www.w3.org/2000/svg" version="1.1" viewBox="0 0 841.89 595.28">
  <!-- Generator: Adobe Illustrator 30.2.1, SVG Export Plug-In . SVG Version: 2.1.1 Build 1)  -->
  <defs>
    <style>
      .st0 {
        fill: #fff;
      }

      .st1 {
        fill: #39a935;
      }
    </style>
  </defs>
  <g id="gIplCA">
    <g>
      <g>
        <g>
          <path class="st0" d="M509.93,238.09l20.73.13-22.4,67.64-22.41.14c-.92-2.33-1.43-4.48-2.14-6.76l-5.52-17.6-3.84-12.6c-.11-.38-.91-1.24-1.14-1.52s-1.32.21-1.43.6l-7.58,25.83-3.59,12.02-22.54-.02-20.47-59.58c-1.14-2.76-1.84-4.79-2.6-8.24l21.72-.06,12.09,42.1c.15.53,2.02-.25,2.2-.84l12.43-41.14,19.49-.07,4.26,13.54,5.58,18.18,3.02,9.85c.09.29.8.83.96.94.25.16,1.16-.6,1.27-.98l4.44-15.54,7.49-26Z"/>
          <path class="st0" d="M732.04,292.08c-6.31,10.79-17.28,16.08-29.55,14.95-5.88-.54-11.33-2.69-16.23-7.33l-.33,4.57c-.04.6-1.38,1.7-2.03,1.7l-19.32-.08v-111.48s21.36-.02,21.36-.02l.23,49.29c8.49-5.8,12.46-7.54,22.07-6.96,17.65,1.06,28.14,16.83,28.62,32.77.24,8-.76,15.64-4.82,22.6ZM710.81,284.46c4.92-5.81,5.14-14.66,2.08-21.35s-10.87-9.78-17.8-6.98c-11.05,4.46-11.27,20.92-5.04,28.18,5.41,6.31,14.9,7.07,20.76.16Z"/>
          <path class="st0" d="M645.92,292.59c-4.28,7.48-11.31,12.3-19.7,14.05-3.43.71-7.58.55-11.16.18-5.58-.58-9.64-3.72-14.65-6.73l-.59,4.63c-.33.33-2.04,1.22-2.79,1.21l-17.94-.11.05-111.56,20.81-.04c.28,1.27.54,2.44.55,3.44l.21,46.07c6.85-5.22,13.39-7.67,21.06-7.06s13.7,2.85,19.02,8.24c9.59,9.72,10.91,21.35,9.78,34.37-.42,4.79-2.2,8.99-4.66,13.29ZM616.13,289.21c8.52-.87,12.63-8.16,12.81-15.81.16-6.93-1.91-13.86-8.5-16.98s-14.62-.43-18.13,6.06c-2.67,4.93-2.75,10.05-1.4,15.56,1.63,6.62,7.91,11.93,15.22,11.18Z"/>
          <path class="st0" d="M408.85,287.76c1.01,0,2.6.97,2.6,1.6v16.59s-73.31-.01-73.31-.01l-.19-14.38,18.32-22.67,24.13-30.06c.38-.47.65-1.59.62-1.99s-1.23-.92-1.74-.92h-40.67s-.09-17.49-.09-17.49c2.06-.4,3.67-.67,5.66-.67h63.34c1.46,0,2.85,1.32,2.83,2.63l-.15,12.83c-.02,1.59-2.36,3.83-3.4,5.13l-12.89,16.03-8.92,10.91-16.2,20.47c-.2.26-.42,1.32-.16,1.49s1.11.53,1.7.53h38.53Z"/>
          <path class="st0" d="M745.55,291.03c-1.99-12.67,4.39-20.4,16.53-22.73,3.22-.62,6.19-1.06,9.49-1.14l15.23-.36c1.07-8.21-7.54-13.29-14.78-12.72-5.22.41-10.62,2.1-15.39,3.77-.39.14-1.64.33-1.81.05-.23-.37-.49-.93-.79-1.66l-3.68-9c-.31-.76-.29-2.55-.14-3.43,3.65-2.78,7.9-4.23,12.5-5.25,10.63-2.36,21.8-2.72,31.91,1.83,7.94,3.57,13.68,13.2,13.72,22.16l.18,43.3-19.49.11-.77-8.29c-4.5,4.71-8.54,8.22-14.7,9.11-3.82.55-8.33.58-12.14-.06-3.2-.54-6.17-2.24-8.78-3.91-4.16-2.65-6.32-7.01-7.07-11.79ZM783.89,290.4c4.46-4.26,3.25-13.08,2.58-13.37-.43-.19-1.67-.33-2.23-.28l-8.69.69c-4.68.37-8.96,3.19-9.49,8.09-.23,2.17.63,4.66,2.05,5.93,3.19,2.86,12.08,2.49,15.79-1.05Z"/>
          <path class="st0" d="M540.96,305.96c-.94-2.57-.59-5.44-.59-8.27l-.03-31.95c0-1.98-.42-3.97-.19-5.91.2-1.61-.01-3.15-.02-4.75l-.12-16.99,21.93.04.03,65.59c0,1.1-1.15,2.25-2.06,2.25h-18.94Z"/>
          <path class="st1" d="M564.66,223.75c-3.95,5.08-10.84,6.94-17.06,5.83-5.55-.99-11.08-5.32-13.36-11.37-3.79-10.05,2.36-20.89,12.86-23.53,7.33-1.84,14.9,2.04,18.73,7.91,4.15,6.37,3.86,14.7-1.16,21.16Z"/>
        </g>
        <g>
          <path class="st0" d="M573.49,374.9h-22.38s-4.46,10.71-4.46,10.71c-1.53.59-3.52.6-5.64-.24l18.38-42.45c1.25-.98,3.92-.89,5.59-.18l18.53,42.44c-1.29,1.02-4.65,1.42-5.35.18-1.91-3.38-2.98-6.32-4.66-10.46ZM571.41,370.08l-9.23-21.49-8.85,21.5h18.08Z"/>
          <path class="st0" d="M344.31,368.89l-.28,16.45c-.2,1.38-4.87,1.43-5.38-.14l-.13-40.65c0-1.15,1.15-2.25,2.29-2.24l17.96.2c7.61.09,12.21,6.44,11.81,13.6-.39,7.04-4.93,12.53-12.21,12.61l-14.06.16ZM364.92,354.99c-.25-4.19-2.55-7.74-7.03-7.84l-13.55-.31-.1,17.39,13.07-.25c5.2-.1,7.91-4.11,7.62-8.98Z"/>
          <path class="st0" d="M478.08,382.05c8.95.86,12.13-6.89,13.12-1.11.75,4.36-17.35,10.08-24.35-.26-4.18-6.17-3.87-14.55.39-20.5,2.74-3.83,6.92-5.3,11.45-5.33s8.6,1.77,10.9,5.73c2.02,3.48,2.67,7.5,1.85,11.49l-21.97.03c-.05,5.15,3.56,9.45,8.61,9.94ZM487.02,368.19c-.07-3.74-1.39-6.12-3.76-7.95-3.02-1.75-6.48-1.73-9.32.13-2.46,1.62-4.4,4.45-4.14,7.83h17.22Z"/>
          <path class="st0" d="M770.42,382.18c7.58-.11,9.7-5.91,11.09-2.03.23.65.37,2.37-.22,2.8-4.74,3.49-11.11,4.51-16.78,2.76-9.73-3.01-11.63-14.32-8.41-22.35,2.12-5.3,6.99-8.34,12.69-8.5,4.34-.12,8.61,1.28,11.06,5.09,2.25,3.51,2.84,7.81,2.24,12.11l-21.71.06c-.45,5.78,4.31,10.14,10.04,10.06ZM777.54,368.21c.22-4.44-2.55-8.31-6.54-9.1-5.88-1.15-10.42,3.38-10.57,9.09h17.11Z"/>
          <path class="st0" d="M398.76,378.99c1.45-.84,2.9,2.76,1.76,3.72-6.85,5.76-20.21,5.53-24.89-3.95-1.87-3.79-2.06-8.25-1.3-12.26,1.38-7.24,7.19-11.92,14.49-11.67,4.5.15,8.42,2,10.63,6.07,1.81,3.33,2.39,7.03,1.79,11.16l-21.73.07c-.16,4.01,2.01,7.64,5.61,9.15,4.83,2.03,9.15.3,13.64-2.28ZM396.67,368.19c.07-5.19-2.94-8.75-7.27-9.17-5.78-.56-9.37,3.42-9.95,9.16h17.21Z"/>
          <path class="st0" d="M685.64,375.3c-1.51,7.07-7.01,11.22-13.91,11.29-5.96.06-11.25-3.05-13.38-8.79-1.69-4.54-1.73-9.68-.05-14.18,2.16-5.82,7.41-8.72,13.43-8.8,7.17-.1,12.87,4.4,14.05,11.61.44,2.72.48,5.95-.14,8.87ZM680.07,366.22c-1-4.18-4.18-6.82-8.07-7.02s-7.38,2.24-8.67,6.33c-1.09,3.45-1.14,7.41.14,10.82,1.39,3.72,4.78,5.8,8.52,5.72,7.48-.16,9.72-9.01,8.08-15.85Z"/>
          <path class="st0" d="M714.01,384.81l-.2-17.71c-.02-2.05-.53-4.91-2.07-6.25-2.34-2.04-5.72-2.04-8.48-.69-2.06,1-4.53,3.91-4.57,7.02l-.2,18.42c-1.46.9-3.5.89-5.22-.01v-29.36c.7-1.5,3.92-1.62,4.75-.56l.58,3.97c2.61-3.75,6.04-4.67,10.09-4.81,5.75-.2,10.25,3.48,10.56,9.58.34,6.71.25,13.83.11,20.48-.02.84-1.93,1.48-2.66,1.5s-2.68-.82-2.69-1.57Z"/>
          <path class="st0" d="M609.77,366.01c-.03-1.94-1-4.38-2.1-5.25-1.48-1.18-3.86-1.68-6.18-1.37-3.11.43-6.62,3.78-6.7,7.36l-.39,18.68c-.61,1.33-4.58,1.21-5.24-.15l-.14-26.99c0-1.1.34-2.71,1.08-2.98.79-.29,2.68-.34,3.4,0,.82.39.88,2.24,1.13,4.03,2.67-3.33,6.14-4.53,10.39-4.51,5.39.02,9.83,3.49,10.09,9.3.32,6.96.24,13.94.01,21.22-.18,1.34-4.61,1.29-5.07-.04l-.28-19.29Z"/>
          <path class="st0" d="M644.91,385.45l-.35-19.72c-.04-2-1.17-4.46-2.77-5.5-2.11-1.38-5.68-1.15-7.75,0-7.64,4.21-3.64,17.5-4.83,25.5-1.64.74-3.78.84-5.15-.27l-.03-29.37c.82-1.21,3.69-1.39,4.8-.67l.65,4.02c2.63-3.26,6.13-4.58,10.28-4.6,5.64-.03,10.15,3.74,10.34,9.7.22,6.73.17,13.33.04,20.41-.03,1.49-4.51,1.82-5.21.51Z"/>
          <path class="st0" d="M807.28,384.94c-8.15,3.65-19.85.13-19.22-4.04.11-.7,1.37-2.13,2.01-1.8,4.13,2.53,9.31,4.31,14.07,2.37,1.54-.63,2.76-2.66,2.64-4.07-.13-1.56-1.61-3.19-3.26-3.59l-8.51-2.04c-2.34-.56-4.61-2.15-5.47-3.79-1.31-2.5-1.31-5.43-.03-7.75,4.95-8.98,22.51-5.12,21.71-.15-.18,1.14-1.65,2.4-2.83,1.64-3.48-2.24-7.27-3.67-11.23-2.1-1.4.55-2.8,1.85-3.1,2.92-2.58,9.15,16.45,2.38,17.9,13.63.42,3.29-.94,7.1-4.68,8.78Z"/>
          <path class="st0" d="M515.38,385.49c-7.16,2.47-18.28-.1-18.36-4.25-.02-.81,1.68-2.44,2.42-2,4.56,2.66,8.95,4.03,14,2.26,1.52-.53,2.69-2.57,2.66-4.16s-1.68-3.08-3.34-3.49l-8.32-2.04c-3.58-.88-6.11-3.5-6.47-6.6-.43-3.69,1.1-6.73,4.49-8.57,5.06-2.75,11.44-2.24,16.54.55,1.51.83,1.88,2.08,1.1,3.58-2.05,3.94-6.16-4.79-14.38-.84-1.62.78-2.52,2.48-2.42,4.18.08,1.3,1.46,3.16,3.02,3.5l8.19,1.8c3.97.87,6.61,3.82,6.74,7.39.14,3.91-1.65,7.24-5.87,8.69Z"/>
          <path class="st0" d="M424.83,385.59c-1.34.68-4,1.01-5.69.96-5.08-.15-9.24-3.75-9.28-9l-.16-17.95-4.84-.03c-1.11,0-1.38-3.81-.2-4.02,1.66-.29,3.15-.25,4.88-.24l.41-8.46c.09-1.77,4.78-1.58,4.87.13l.45,8.21,8.23.09c1.28.01,1.44,4.17.28,4.22l-8.68.42.04,16.62c0,1.93,1.38,4.17,2.83,4.88,3.81,1.87,7.19-1.86,7.61,1.14.1.71-.11,2.73-.74,3.05Z"/>
          <path class="st0" d="M461.19,384.91c-3.03,2.49-7.65,2-10.99.18-2.45-1.34-4.25-4.27-4.29-7.25l-.23-18.16c-1.86.04-3.59.11-5.18-.25-1.09-.25-.96-3.7.11-3.76l5.05-.29.25-8.39c.02-.72,1.57-1.42,2.2-1.45.74-.04,2.68.57,2.7,1.35l.27,8.5c3.03-.21,5.92-.36,8.6,0,1.19.16,1,4.09-.13,4.14l-8.62.38.09,16.68c0,1.42,1.22,3.64,2.18,4.36,2.76,2.07,5.31.24,7.83.71.69.13.7,2.81.16,3.26Z"/>
          <path class="st0" d="M731.82,371.3c.15,4.62,2.09,8.33,5.66,9.92,3.87,1.73,8.05.5,11.16-2.14.71-.49,2.34,1,2.46,1.81.74,4.84-13.88,9.28-20.93,1.14-4.83-5.58-5.21-14.15-1.73-20.49,5.58-10.15,22.27-7.02,22.84-1.87.09.85-1.45,2.84-2.23,2.45-3.69-2.45-7.85-4.03-11.94-1.9-3.99,2.09-5.47,6.36-5.31,11.07Z"/>
          <path class="st0" d="M435.2,385.28c-.84,1.6-5.22,1.28-5.22-.62l-.05-28.34c.38-1.63,4.79-1.71,5.18-.23l.09,29.19Z"/>
          <path class="st0" d="M435.54,348.11c-2.29.4-3.89.37-6.05-.16-.52-1.5-.9-3.88.19-4.9,1.3-1.21,4.51-1.18,5.73.09,1,1.05.56,2.98.13,4.97Z"/>
        </g>
      </g>
      <g>
        <path class="st1" d="M313.4,414c-5.81,14.34-18.56,22.69-33.8,24.81l-210.54-.03c-19.15-2.36-36.31-17.53-36.35-37.53l-.35-206.86c1.54-11,5.63-21.06,14.32-28.12,6.35-5.16,14.5-9.73,23.22-9.73l209.18-.13c22.8,2.75,37.21,19.5,37.2,42.22l-.08,203.18c0,4.22-1.36,8.66-2.8,12.19ZM301.24,401.54l.06-79.03.12-5.28c.11-4.64.63-8.77-.16-13.49l-.05-109.43c0-3.08-1.26-6.39-2.62-9.01-4.19-8.1-12.75-13.9-22.21-13.9H94.79c-2.6-.01-4.7.53-7.15.2-1.83-.25-3.69-.1-5.57-.11-5.47-.04-11.11-.52-16.34,1.02-7.34,2.15-12.69,7.02-15.93,13.71-2.83,5.85-2.6,9.81-2.6,15.75v21.39s.07,4.98.07,4.98l.05,173.44c1.88,11.09,10.52,21.78,22.73,21.79l209.32.29c11.97-2.1,20.44-10.03,21.88-22.32Z"/>
        <path class="st1" d="M111.71,386.62c-3.25,0-5.63-3.16-5.64-5.73l-.04-16.88c0-1.45,1-3.53,1.91-4.78l23.56-32.4,22.09-30.1,30.34-41.3,9.65-13.22-81.66-.06c-2.88,0-4.56-2.91-5.01-5.25-.7-3.62-.06-6.98-.02-10.62.07-5.91-2.68-17.3,6.01-17.3h125.67c3.09,0,5.49,1.84,5.68,5.18.34,6,.22,12.12.18,18.37-.01,2-.98,3.94-2,5.64l-20.09,27.36-63.78,87.39,79.56.1c3.7,0,5.84,2.47,6.26,6.04.07,7.39.2,14.62-.12,22.01-.1,2.32-2.32,5.49-4.77,5.49l-127.78.05Z"/>
      </g>
    </g>
  </g>
</svg>